<svg width="580" height="400" xmlns="http://www.w3.org/2000/svg">
 <!-- Created with Method Draw - http://github.com/duopixel/Method-Draw/ -->
 <g>
  <title>background</title>
  <rect fill="#fff" id="canvas_background" height="402" width="582" y="-1" x="-1"/>
  <g display="none" overflow="visible" y="0" x="0" height="100%" width="100%" id="canvasGrid">
   <rect fill="url(#gridpattern)" stroke-width="0" y="0" x="0" height="100%" width="100%"/>
  </g>
 </g>
 <g>
  <title>Layer 1</title>
  <text style="cursor: move;" xml:space="preserve" text-anchor="start" font-family="Helvetica, Arial, sans-serif" font-size="24" id="svg_1" y="63.949997" x="221.5" stroke-width="0" stroke="#000" fill="#000000">seat map</text>
  <rect id="svg_2" height="9" width="17" y="123.949997" x="345.5" stroke-width="1.5" stroke="#000" fill="#fff"/>
  <rect id="svg_3" height="9" width="17" y="123.949997" x="321.5" stroke-width="1.5" stroke="#000" fill="#fff"/>
  <rect id="svg_4" height="9" width="17" y="123.949997" x="296.5" stroke-width="1.5" stroke="#000" fill="#fff"/>
  <rect id="svg_5" height="9" width="17" y="123.949997" x="269.5" stroke-width="1.5" stroke="#000" fill="#fff"/>
  <rect id="svg_6" height="9" width="17" y="123.949997" x="241.5" stroke-width="1.5" stroke="#000" fill="#fff"/>
  <rect id="svg_7" height="9" width="17" y="123.949997" x="216.5" stroke-width="1.5" stroke="#000" fill="#fff"/>
  <rect id="svg_8" height="9" width="17" y="123.949997" x="190.5" stroke-width="1.5" stroke="#000" fill="#fff"/>
  <rect id="svg_9" height="9" width="17" y="123.949997" x="162.5" stroke-width="1.5" stroke="#000" fill="#fff"/>
  <rect id="svg_10" height="9" width="17" y="143.949997" x="347.5" stroke-width="1.5" stroke="#000" fill="#fff"/>
  <rect id="svg_11" height="9" width="17" y="143.949997" x="323.5" stroke-width="1.5" stroke="#000" fill="#fff"/>
  <rect id="svg_12" height="9" width="17" y="143.949997" x="298.5" stroke-width="1.5" stroke="#000" fill="#fff"/>
  <rect id="svg_13" height="9" width="17" y="143.949997" x="271.5" stroke-width="1.5" stroke="#000" fill="#fff"/>
  <rect id="svg_14" height="9" width="17" y="143.949997" x="243.5" stroke-width="1.5" stroke="#000" fill="#fff"/>
  <rect id="svg_15" height="9" width="17" y="143.949997" x="218.5" stroke-width="1.5" stroke="#000" fill="#fff"/>
  <rect id="svg_16" height="9" width="17" y="143.949997" x="192.5" stroke-width="1.5" stroke="#000" fill="#fff"/>
  <rect id="svg_17" height="9" width="17" y="143.949997" x="164.5" stroke-width="1.5" stroke="#000" fill="#fff"/>
  <rect id="svg_18" height="9" width="17" y="163.949997" x="347.5" stroke-width="1.5" stroke="#000" fill="#fff"/>
  <rect id="svg_19" height="9" width="17" y="163.949997" x="323.5" stroke-width="1.5" stroke="#000" fill="#fff"/>
  <rect id="svg_20" height="9" width="17" y="163.949997" x="298.5" stroke-width="1.5" stroke="#000" fill="#fff"/>
  <rect id="svg_21" height="9" width="17" y="163.949997" x="271.5" stroke-width="1.5" stroke="#000" fill="#fff"/>
  <rect id="svg_22" height="9" width="17" y="163.949997" x="243.5" stroke-width="1.5" stroke="#000" fill="#fff"/>
  <rect id="svg_23" height="9" width="17" y="163.949997" x="218.5" stroke-width="1.5" stroke="#000" fill="#fff"/>
  <rect id="svg_24" height="9" width="17" y="163.949997" x="192.5" stroke-width="1.5" stroke="#000" fill="#fff"/>
  <rect id="svg_25" height="9" width="17" y="163.949997" x="164.5" stroke-width="1.5" stroke="#000" fill="#fff"/>
  <rect id="svg_26" height="9" width="17" y="181.949997" x="348.5" stroke-width="1.5" stroke="#000" fill="#fff"/>
  <rect id="svg_27" height="9" width="17" y="181.949997" x="324.5" stroke-width="1.5" stroke="#000" fill="#fff"/>
  <rect id="svg_28" height="9" width="17" y="181.949997" x="299.5" stroke-width="1.5" stroke="#000" fill="#fff"/>
  <rect id="svg_29" height="9" width="17" y="181.949997" x="272.5" stroke-width="1.5" stroke="#000" fill="#fff"/>
  <rect id="svg_30" height="9" width="17" y="181.949997" x="244.5" stroke-width="1.5" stroke="#000" fill="#fff"/>
  <rect id="svg_31" height="9" width="17" y="181.949997" x="219.5" stroke-width="1.5" stroke="#000" fill="#fff"/>
  <rect id="svg_32" height="9" width="17" y="181.949997" x="193.5" stroke-width="1.5" stroke="#000" fill="#fff"/>
  <rect id="svg_33" height="9" width="17" y="181.949997" x="165.5" stroke-width="1.5" stroke="#000" fill="#fff"/>
  <rect id="svg_34" height="9" width="17" y="200.949997" x="351.5" stroke-width="1.5" stroke="#000" fill="#fff"/>
  <rect id="svg_35" height="9" width="17" y="200.949997" x="327.5" stroke-width="1.5" stroke="#000" fill="#fff"/>
  <rect id="svg_36" height="9" width="17" y="200.949997" x="302.5" stroke-width="1.5" stroke="#000" fill="#fff"/>
  <rect id="svg_37" height="9" width="17" y="200.949997" x="275.5" stroke-width="1.5" stroke="#000" fill="#fff"/>
  <rect id="svg_38" height="9" width="17" y="200.949997" x="247.5" stroke-width="1.5" stroke="#000" fill="#fff"/>
  <rect id="svg_39" height="9" width="17" y="200.949997" x="222.5" stroke-width="1.5" stroke="#000" fill="#fff"/>
  <rect id="svg_40" height="9" width="17" y="200.949997" x="196.5" stroke-width="1.5" stroke="#000" fill="#fff"/>
  <rect id="svg_41" height="9" width="17" y="200.949997" x="168.5" stroke-width="1.5" stroke="#000" fill="#fff"/>
 </g>
</svg>